<svg width="23" height="23" viewBox="0 0 23 23" fill="none" xmlns="http://www.w3.org/2000/svg">
<path d="M19 21.5C19.8284 21.5 20.5 20.8284 20.5 20C20.5 19.1716 19.8284 18.5 19 18.5C18.1716 18.5 17.5 19.1716 17.5 20C17.5 20.8284 18.1716 21.5 19 21.5Z" fill="black" stroke="black" stroke-width="2" stroke-linecap="round" stroke-linejoin="round"/>
<path d="M9 21.5C9.8284 21.5 10.5 20.8284 10.5 20C10.5 19.1716 9.8284 18.5 9 18.5C8.17157 18.5 7.5 19.1716 7.5 20C7.5 20.8284 8.17157 21.5 9 21.5Z" fill="black" stroke="black" stroke-width="2" stroke-linecap="round" stroke-linejoin="round"/>
<path d="M4.5 3.5H21.5L19.5 14.5H6.5L4.5 3.5ZM4.5 3.5C4.33333 2.83333 3.5 1.5 1.5 1.5" stroke="black" stroke-width="2" stroke-linecap="round" stroke-linejoin="round"/>
<path d="M19.5 14.5H6.5H4.73077C2.94646 14.5 2 15.2812 2 16.5C2 17.7188 2.94646 18.5 4.73077 18.5H19" stroke="black" stroke-width="2" stroke-linecap="round" stroke-linejoin="round"/>
</svg>
