<svg width="19" height="20" viewBox="0 0 19 20" fill="none" xmlns="http://www.w3.org/2000/svg">
<path d="M15.875 18.5C16.5791 18.5 17.15 17.9291 17.15 17.225C17.15 16.5209 16.5791 15.95 15.875 15.95C15.1708 15.95 14.6 16.5209 14.6 17.225C14.6 17.9291 15.1708 18.5 15.875 18.5Z" stroke="white" stroke-width="1.5" stroke-linecap="round" stroke-linejoin="round"/>
<path d="M7.37498 18.5C8.07912 18.5 8.64998 17.9291 8.64998 17.225C8.64998 16.5209 8.07912 15.95 7.37498 15.95C6.67081 15.95 6.09998 16.5209 6.09998 17.225C6.09998 17.9291 6.67081 18.5 7.37498 18.5Z" stroke="white" stroke-width="1.5" stroke-linecap="round" stroke-linejoin="round"/>
<path d="M3.55 3.2H18L16.3 12.55H5.25L3.55 3.2ZM3.55 3.2C3.40833 2.63333 2.7 1.5 1 1.5" stroke="white" stroke-width="1.5" stroke-linecap="round" stroke-linejoin="round"/>
<path d="M16.3 12.55H5.24999H3.74614C2.22948 12.55 1.42499 13.214 1.42499 14.25C1.42499 15.286 2.22948 15.95 3.74614 15.95H15.875" stroke="white" stroke-width="1.5" stroke-linecap="round" stroke-linejoin="round"/>
</svg>
