<svg width="60" height="60" viewBox="0 0 60 60" fill="none" xmlns="http://www.w3.org/2000/svg">
<path d="M7.49755 7.5L52.4975 52.5M24.6083 24.7841C23.3017 26.134 22.4976 27.973 22.4976 30C22.4976 34.1423 25.8555 37.5 29.9975 37.5C32.0538 37.5 33.9168 36.6725 35.2715 35.3325M16.2476 16.6179C11.4993 19.7509 7.88263 24.4599 6.14258 30C9.3282 40.1427 18.804 47.5 29.998 47.5C34.9703 47.5 39.6035 46.0485 43.497 43.546M27.4975 12.6235C28.32 12.5418 29.1543 12.5 29.998 12.5C41.1923 12.5 50.668 19.8573 53.8535 30C53.1518 32.235 52.1443 34.3345 50.8805 36.25" stroke="black" stroke-width="5" stroke-linecap="round" stroke-linejoin="round"/>
</svg>
