<svg width="35" height="35" viewBox="0 0 35 35" fill="none" xmlns="http://www.w3.org/2000/svg">
    <rect width="35" height="35" rx="5" fill="#07D357" fill-opacity="0.1"/>
    <path d="M23.125 25C23.7463 25 24.25 24.4963 24.25 23.875C24.25 23.2537 23.7463 22.75 23.125 22.75C22.5037 22.75 22 23.2537 22 23.875C22 24.4963 22.5037 25 23.125 25Z" fill="#0AB843" stroke="#0AB843" stroke-width="1.5" stroke-linecap="round" stroke-linejoin="round"/>
    <path d="M15.625 25C16.2463 25 16.75 24.4963 16.75 23.875C16.75 23.2537 16.2463 22.75 15.625 22.75C15.0037 22.75 14.5 23.2537 14.5 23.875C14.5 24.4963 15.0037 25 15.625 25Z" fill="#0AB843" stroke="#0AB843" stroke-width="1.5" stroke-linecap="round" stroke-linejoin="round"/>
    <path d="M12.25 11.5H25L23.5 19.75H13.75L12.25 11.5ZM12.25 11.5C12.125 11 11.5 10 10 10" stroke="#0AB843" stroke-width="1.5" stroke-linecap="round" stroke-linejoin="round"/>
    <path d="M23.5 19.75H13.75H12.4231C11.0848 19.75 10.375 20.3359 10.375 21.25C10.375 22.1641 11.0848 22.75 12.4231 22.75H23.125" stroke="#0AB843" stroke-width="1.5" stroke-linecap="round" stroke-linejoin="round"/>
</svg>